<?xml version="1.0" encoding="UTF-8"?>
<svg width="291px" height="40px" viewBox="0 0 291 40" version="1.1" xmlns="http://www.w3.org/2000/svg" xmlns:xlink="http://www.w3.org/1999/xlink">
    <title>Logo/Main - Colored</title>
    <g id="Logo/Main---Colored" stroke="none" stroke-width="1" fill="none" fill-rule="evenodd">
        <g id="SUIEW" transform="translate(1.050000, 0.000000)" fill="#171717" fill-rule="nonzero">
            <path d="M6.85,22.4042036 C5.56666667,22.4042036 4.41666667,22.1958703 3.4,21.7792036 C2.38333333,21.3625369 1.57083333,20.7458703 0.9625,19.9292036 C0.354166667,19.1125369 0.0333333333,18.1292036 0,16.9792036 L4.55,16.9792036 C4.61666667,17.6292036 4.84166667,18.1250369 5.225,18.4667036 C5.60833333,18.8083703 6.10833333,18.9792036 6.725,18.9792036 C7.35833333,18.9792036 7.85833333,18.8333703 8.225,18.5417036 C8.59166667,18.2500369 8.775,17.8458703 8.775,17.3292036 C8.775,16.8958703 8.62916667,16.5375369 8.3375,16.2542036 C8.04583333,15.9708703 7.6875,15.7375369 7.2625,15.5542036 C6.8375,15.3708703 6.23333333,15.1625369 5.45,14.9292036 C4.31666667,14.5792036 3.39166667,14.2292036 2.675,13.8792036 C1.95833333,13.5292036 1.34166667,13.0125369 0.825,12.3292036 C0.308333333,11.6458703 0.05,10.7542036 0.05,9.65420362 C0.05,8.02087028 0.641666667,6.74170362 1.825,5.81670362 C3.00833333,4.89170362 4.55,4.42920362 6.45,4.42920362 C8.38333333,4.42920362 9.94166667,4.89170362 11.125,5.81670362 C12.3083333,6.74170362 12.9416667,8.02920362 13.025,9.67920362 L8.4,9.67920362 C8.36666667,9.11253695 8.15833333,8.66670362 7.775,8.34170362 C7.39166667,8.01670362 6.9,7.85420362 6.3,7.85420362 C5.78333333,7.85420362 5.36666667,7.99170362 5.05,8.26670362 C4.73333333,8.54170362 4.575,8.93753695 4.575,9.45420362 C4.575,10.0208703 4.84166667,10.4625369 5.375,10.7792036 C5.90833333,11.0958703 6.74166667,11.4375369 7.875,11.8042036 C9.00833333,12.1875369 9.92916667,12.5542036 10.6375,12.9042036 C11.3458333,13.2542036 11.9583333,13.7625369 12.475,14.4292036 C12.9916667,15.0958703 13.25,15.9542036 13.25,17.0042036 C13.25,18.0042036 12.9958333,18.9125369 12.4875,19.7292036 C11.9791667,20.5458703 11.2416667,21.1958703 10.275,21.6792036 C9.30833333,22.1625369 8.16666667,22.4042036 6.85,22.4042036 Z" id="Path"></path>
            <path d="M18.875,2.42920362 C18.875,5.19281977 18.875,7.77615311 18.875,10.1792036 C18.875,11.2292036 19.1333333,12.0375369 19.65,12.6042036 C20.1666667,13.1708703 20.925,13.4542036 21.925,13.4542036 C22.925,13.4542036 23.6916667,13.1708703 24.225,12.6042036 C24.7583333,12.0375369 25.025,11.2292036 25.025,10.1792036 C25.025,7.57933141 25.025,4.99599808 25.025,2.42920362 C25.025,-0.809734539 29.3,-0.809734539 29.3,2.42920362 C29.3,5.15135289 29.3,7.72635289 29.3,10.1542036 C29.3,11.7208703 28.9666667,13.0458703 28.3,14.1292036 C27.6333333,15.2125369 26.7375,16.0292036 25.6125,16.5792036 C24.4875,17.1292036 23.2333333,17.4042036 21.85,17.4042036 C20.4666667,17.4042036 19.2291667,17.1333703 18.1375,16.5917036 C17.0458333,16.0500369 16.1833333,15.2333703 15.55,14.1417036 C14.9166667,13.0500369 14.6,11.7208703 14.6,10.1542036 C14.6,7.68079772 14.6,5.10579772 14.6,2.42920362 C14.6,-0.765886792 18.875,-0.765886792 18.875,2.42920362 Z" id="Path"></path>
            <polygon id="Path" points="35.375 4.67920362 35.375 22.2292036 31.1 22.2292036 31.1 4.67920362"></polygon>
            <polygon id="Path" points="41.55 8.10420362 41.55 11.6542036 47.275 11.6542036 47.275 14.9542036 41.55 14.9542036 41.55 18.8042036 48.025 18.8042036 48.025 22.2292036 37.275 22.2292036 37.275 4.67920362 48.025 4.67920362 48.025 8.10420362"></polygon>
            <polygon id="Path" points="73.75 4.67920362 69.175 22.2292036 64 22.2292036 61.2 10.6792036 58.3 22.2292036 53.125 22.2292036 48.675 4.67920362 53.25 4.67920362 55.775 17.4542036 58.9 4.67920362 63.6 4.67920362 66.6 17.4542036 69.15 4.67920362"></polygon>
        </g>
        <text id="Society-for-the-Unde" font-family="Poppins-Medium, Poppins" font-size="11" font-weight="400" line-spacing="11" letter-spacing="-0.474286" fill="#171717">
            <tspan x="0" y="34.2292036">Society for the Understanding of Important English Words</tspan>
        </text>
        <rect id="Rectangle" fill="#171717" x="16" y="18.7292036" width="15" height="3.5"></rect>
    </g>
</svg>